# xmcd CD database file
#
# Track frame offsets:
#	150
#	12091
#	31577
#	44361
#	59473
#	72875
#	86792
#	99627
#	115826
#	134253
#	147198
#	160234
#	174275
#	187542
#	204265
#	220942
#	233531
#	248835
#
# Disc length: 3531 seconds
#
# Revision: 0
# Processed by: cddbd v1.5.2PL0 Copyright (c) Steve Scherf et al.
# Submitted via: CDex 1.51
#
DISCID=e50dc912
DTITLE=Django Reinhardt - Tresors CD 3
DYEAR=1900
DGENRE=Blues
TTITLE0=Minor Swing
TTITLE1=La Mer
TTITLE2=The World Is Waiting For The Sunrise
TTITLE3=Manoir De Mes Rêves
TTITLE4=Dream Of You
TTITLE5=Ménilmontant
TTITLE6=It's Only A Paper Moon
TTITLE7=I Saw Stars
TTITLE8=Nuages
TTITLE9=Swing Guitars
TTITLE10=All The Swing You Are 
TTITLE11=A Tisket A Tasket
TTITLE12=September Song
TTITLE13=Artillerie Lourde
TTITLE14=Improvisation On Tchaikowsky's "Pathétique" Andante
TTITLE15=Djangology
TTITLE16=Où Es-Tu Mon Amour ?
TTITLE17=Russian Songs Medley
EXTD=
EXTT0=
EXTT1=
EXTT2=
EXTT3=
EXTT4=
EXTT5=
EXTT6=
EXTT7=
EXTT8=
EXTT9=
EXTT10=
EXTT11=
EXTT12=
EXTT13=
EXTT14=
EXTT15=
EXTT16=
EXTT17=
PLAYORDER=
